PathFileType	4	(X/Y/Z)	C:/Users/opensim2020/Desktop/walking_exp_matlab/subject01_walking11_straight_01.trc																																																																																																																																		
DataRate	CameraRate	NumFrames	NumMarkers	Units	OrigDataRate	OrigDataStartFrame	OrigNumFrames																																																																																																																														
100	100	7	44	mm	100	1003	374																																																																																																																														
Frame#	Time	LFHD			RFHD			LBHD			RBHD			C7			T10			CLAV			STRN			RBAK			LSHO			LUPA			LELB			LFRM			LWRA			LWRB			LFIN			RSHO			RUPA			RELB			RFRM			RWRA			RWRB			RFIN			LASI			RASI			LPSI			RPSI			LTHI			LKNE			LTIB			LANK			LHEE			LTOE			RTHI			RKNE			RTIB			RANK			RHEE			RTOE			*39			*40			*41			*42			*43		
		X1	Y1	Z1	X2	Y2	Z2	X3	Y3	Z3	X4	Y4	Z4	X5	Y5	Z5	X6	Y6	Z6	X7	Y7	Z7	X8	Y8	Z8	X9	Y9	Z9	X10	Y10	Z10	X11	Y11	Z11	X12	Y12	Z12	X13	Y13	Z13	X14	Y14	Z14	X15	Y15	Z15	X16	Y16	Z16	X17	Y17	Z17	X18	Y18	Z18	X19	Y19	Z19	X20	Y20	Z20	X21	Y21	Z21	X22	Y22	Z22	X23	Y23	Z23	X24	Y24	Z24	X25	Y25	Z25	X26	Y26	Z26	X27	Y27	Z27	X28	Y28	Z28	X29	Y29	Z29	X30	Y30	Z30	X31	Y31	Z31	X32	Y32	Z32	X33	Y33	Z33	X34	Y34	Z34	X35	Y35	Z35	X36	Y36	Z36	X37	Y37	Z37	X38	Y38	Z38	X39	Y39	Z39	X40	Y40	Z40	X41	Y41	Z41	X42	Y42	Z42	X43	Y43	Z43	X44	Y44	Z44
																																																																																																																																					
94	0.93	-731.19373	1671.33569	1419.49316	-706.71741	1679.23657	1530.59814	-830.9931	1597.8241	1438.73584	-807.31586	1604.77502	1556.85962	-826.63574	1420.81335	1462.37158	-859.00983	1129.28259	1459.70911	-681.92731	1357.64075	1464.96277	-637.93774	1200.95984	1453.06628	-881.85974	1224.06458	1527.25208	-736.56079	1392.84924	1304.46692	-744.51636	1211.23877	1212.21411	-737.27472	1058.78247	1205.37805	-672.6189	962.84094	1183.27026	-571.17474	870.86432	1206.56482	-620.34009	852.16193	1179.04675	-555.3847	799.34357	1171.47083	-753.40045	1377.38171	1614.30652	-817.99902	1173.48682	1701.62817	-816.43701	1050.29895	1701.2771	-796.09674	932.26843	1731.15405	-720.2074	812.38379	1717.88342	-767.86719	814.11975	1752.42517	-734.67944	734.18549	1750.08105	-690.64349	919.95837	1345.13806	-675.96753	929.81262	1561.19397	-873.19507	934.39612	1410.82751	-861.97369	937.30548	1556.40137	-760.98926	587.16577	1302.74487	-792.66254	453.9664	1317.01001	-904.68622	299.89929	1309.31897	-1010.90674	106.85814	1359.87109	-1063.18628	94.17096	1413.30945	-885.73566	28.43465	1355.12671	-664.14197	604.41064	1626.57458	-619.34363	453.55432	1598.80774	-641.13647	278.12607	1610.97815	-632.70428	71.37297	1568.34534	-679.08734	30.58709	1519.34521	-491.16202	38.6603	1563.80603	-729.4892	1708.67932	1510.9989	1973.15784	1023.39929	-3102.03003	2012.48901	1021.99207	-3140.66919	NaN	NaN	NaN	NaN	NaN	NaN
95	0.94	-725.35138	1672.28662	1421.81885	-700.68726	1680.20813	1532.85864	-825.18872	1598.91907	1441.29175	-801.33655	1605.89771	1559.31396	-820.69568	1421.6001	1464.92749	-852.68091	1130.08203	1461.70264	-676.00238	1358.85059	1467.21814	-631.59491	1202.30383	1455.17615	-875.40497	1224.69556	1529.81702	-730.99225	1394.11108	1306.9458	-739.10956	1212.75977	1214.17688	-732.79016	1059.97083	1207.64612	-669.13464	963.72083	1185.12976	-568.32452	870.8927	1208.01147	-617.6629	852.65759	1180.53235	-553.06165	799.15363	1172.88477	-747.24548	1378.37061	1616.59351	-811.14056	1174.30725	1704.09277	-809.37347	1051.1178	1703.41028	-788.69727	933.05939	1732.99829	-712.54688	813.33258	1719.27637	-760.1236	815.1723	1754.11511	-726.88666	734.91077	1751.35413	-683.84875	921.14954	1347.44006	-669.48193	930.73468	1563.40894	-866.33521	935.37305	1412.40027	-855.51892	938.34552	1558.00671	-750.87268	587.56781	1303.81873	-781.35431	454.24353	1317.39294	-896.4071	302.48416	1309.23145	-1007.08496	111.82659	1358.98279	-1059.49048	100.7739	1412.30847	-885.15985	28.37323	1355.04089	-660.07202	604.77753	1628.21082	-616.27618	453.48267	1600.33716	-639.43274	278.03757	1611.854	-632.45953	71.22046	1568.55371	-679.05945	30.73653	1519.65759	-490.87173	38.20192	1563.63953	-723.45117	1709.67981	1513.26843	1973.04407	1023.49896	-3102.01685	2012.52307	1022.08282	-3140.77051	NaN	NaN	NaN	NaN	NaN	NaN
96	0.95	-719.57977	1673.14966	1424.07764	-694.67078	1681.18848	1535.02112	-819.56842	1600.10168	1443.75842	-795.34985	1607.01807	1561.73755	-814.97192	1422.45422	1467.56567	-846.31714	1130.81995	1463.74414	-670.07916	1360.08203	1469.49353	-625.30829	1203.60986	1457.28406	-868.99933	1225.43665	1532.48389	-725.38623	1395.30762	1309.40369	-733.65027	1214.20142	1216.21545	-728.78949	1061.41638	1209.78992	-665.94824	964.55499	1186.88782	-565.54504	870.8847	1209.56653	-615.35315	853.26556	1181.97876	-551.05798	799.01056	1174.24023	-740.84241	1379.36084	1619.05078	-804.24994	1175.21521	1706.70215	-802.29633	1051.99146	1705.67847	-781.1911	933.87634	1734.92517	-704.77124	814.34802	1720.67688	-752.13269	816.02551	1755.83386	-718.85229	735.79675	1752.63538	-677.02905	922.43365	1349.80664	-662.9566	931.73553	1565.67346	-859.60797	936.36523	1414.03235	-848.95746	939.32776	1559.55151	-740.23755	587.94495	1304.84143	-769.33765	454.48306	1317.80359	-887.68567	305.37314	1309.12048	-1002.84827	117.05424	1358.026	-1055.29346	108.13891	1411.47083	-884.69159	28.48678	1354.97778	-656.29968	604.90887	1629.70422	-613.60858	453.21292	1601.69299	-638.05225	277.85339	1612.71497	-632.32025	71.12994	1568.83179	-679.104	30.79571	1519.89453	-490.74591	37.92949	1563.95459	-717.31531	1710.70715	1515.51733	1973.01331	1023.91785	-3102.05884	2012.4657	1022.07837	-3140.78125	NaN	NaN	NaN	NaN	NaN	NaN
97	0.96	-713.72467	1674.06067	1426.24622	-688.63855	1682.02893	1537.1521	-813.69952	1601.04663	1446.18152	-789.37152	1608.0448	1564.073	-809.23041	1423.22009	1470.08716	-840.00024	1131.54065	1465.92944	-664.19287	1361.2644	1471.72327	-619.08417	1204.89807	1459.37415	-862.6272	1226.13733	1535.21582	-719.76978	1396.46008	1311.7384	-728.33246	1215.67249	1218.16333	-724.86188	1062.66931	1211.88623	-662.76532	965.29578	1188.63135	-563.12579	870.68048	1211.05212	-613.06268	853.68195	1183.40466	-549.20026	798.7655	1175.60461	-734.66528	1380.31567	1621.32751	-797.34064	1176.12732	1709.29553	-795.22186	1052.76501	1707.87903	-773.62421	934.66248	1736.92896	-696.68323	815.48145	1722.23303	-743.89874	817.00769	1757.41504	-710.59521	736.68201	1753.85938	-670.39392	923.66498	1352.16638	-656.62604	932.56445	1567.75354	-853.04767	937.27991	1415.64502	-842.5849	940.39368	1561.19592	-729.21576	588.32733	1305.7677	-756.75031	454.77185	1317.94897	-878.46338	308.49731	1309.09351	-997.87231	122.81108	1357.27588	-1050.06091	116.02822	1411.0575	-884.10352	28.59015	1355.05994	-652.86267	605.1532	1631.26538	-611.16107	452.83878	1603.16589	-636.93567	277.6283	1613.54224	-632.31921	70.97632	1569.06128	-679.23071	30.88618	1520.12524	-490.62576	37.9099	1564.2229	-711.28406	1711.67822	1517.67273	1973.19458	1023.4707	-3101.94897	2012.46765	1021.92151	-3140.76074	NaN	NaN	NaN	NaN	NaN	NaN
98	0.97	-707.92615	1674.85852	1428.34766	-682.6676	1682.87683	1539.2135	-808.08984	1602.09314	1448.53809	-783.44397	1609.05896	1566.35779	-803.48871	1423.8905	1472.60681	-833.77277	1132.17761	1468.16602	-658.40735	1362.33899	1473.82947	-612.92615	1206.07996	1461.40295	-856.33508	1226.84155	1538.0094	-714.19879	1397.48413	1314.04712	-723.09302	1216.8396	1220.22083	-720.72772	1064.15442	1214.01428	-659.71039	966.01654	1190.35071	-560.68488	870.51221	1212.44861	-610.89795	853.98633	1184.78064	-547.51672	798.44574	1176.94385	-728.4306	1381.2522	1623.53186	-790.45178	1177.03638	1711.95386	-788.16187	1053.53455	1710.13708	-766.06586	935.41669	1738.92615	-688.77509	816.52466	1723.67615	-735.77283	817.79169	1759.07898	-702.22198	737.60651	1755.22522	-663.98523	924.78888	1354.39441	-650.34833	933.34802	1569.90625	-846.63782	938.06049	1417.32031	-836.28571	941.57074	1562.93091	-717.75409	588.64148	1306.51331	-743.59338	455.20636	1317.8064	-868.64929	311.90167	1309.05847	-992.40564	128.99008	1356.84155	-1043.82935	124.09631	1410.95361	-883.3219	28.74163	1355.21155	-649.70221	605.17987	1632.7063	-608.99048	452.50873	1604.71277	-635.98151	277.41794	1614.45789	-632.46307	70.82446	1569.2262	-679.32239	30.71204	1520.19031	-490.60818	37.36393	1564.08228	-705.29541	1712.56995	1519.76636	1973.14014	1023.45264	-3101.87891	2012.49646	1022.14325	-3140.75879	NaN	NaN	NaN	NaN	NaN	NaN
99	0.98	-702.16846	1675.53284	1430.4574	-676.70685	1683.68176	1541.245	-802.25842	1602.89063	1450.85059	-777.51379	1609.99121	1568.61951	-797.72247	1424.46863	1474.95728	-827.55194	1132.72388	1470.41736	-652.49811	1363.32092	1475.90125	-606.73303	1207.1615	1463.43164	-850.07458	1227.4834	1540.79211	-708.62018	1398.44958	1316.24988	-718.16394	1218.00488	1222.24817	-716.70593	1065.29456	1215.99695	-656.68365	966.61743	1192.0271	-558.50098	870.15967	1213.82739	-608.92847	854.19183	1186.16309	-545.95966	797.96875	1178.22302	-722.16528	1382.02771	1625.77087	-783.53784	1177.85706	1714.5592	-781.04858	1054.2041	1712.48657	-758.41937	936.13239	1741.01025	-680.70355	817.57312	1725.19653	-727.40399	818.59296	1760.93555	-693.61591	738.52887	1756.61157	-657.69617	925.74554	1356.64465	-644.24518	933.89618	1571.84851	-840.41272	938.75507	1419.02625	-830.10413	942.48651	1564.5929	-705.96057	588.94769	1307.17236	-729.90875	455.42273	1317.69385	-858.32092	315.50867	1309.07373	-985.9267	134.92085	1356.37488	-1036.67981	132.3018	1411.08521	-882.36292	28.98942	1355.49536	-646.39716	605.23352	1634.35291	-607.05267	452.21542	1606.3186	-635.1853	277.1694	1615.33618	-632.48993	70.76554	1569.51538	-679.40588	30.56864	1520.23328	-490.49539	37.14162	1564.08203	-699.31409	1713.32361	1521.81885	1973.12415	1023.4361	-3101.98926	2012.56079	1021.99518	-3140.73975	NaN	NaN	NaN	NaN	NaN	NaN
100	0.99	-696.39063	1676.15698	1432.50037	-670.80145	1684.31299	1543.21497	-796.58228	1603.61646	1453.06067	-771.6275	1610.77026	1570.79065	-791.95868	1424.95984	1477.21387	-821.44238	1133.31091	1472.70776	-646.66992	1364.17188	1477.88159	-600.65924	1208.07507	1465.37976	-843.91376	1228.08533	1543.45422	-703.05591	1399.27332	1318.38049	-713.29913	1218.81042	1224.34534	-712.80603	1066.26001	1217.82092	-653.91504	967.13599	1193.78821	-556.35193	869.65289	1215.12036	-606.99084	854.24701	1187.45825	-544.51013	797.38397	1179.47754	-716.0274	1382.74829	1627.83215	-776.64703	1178.57739	1717.16492	-773.93134	1054.82227	1714.89185	-750.67889	936.77405	1743.14099	-672.44305	818.57782	1726.82703	-718.96729	819.4071	1762.80151	-684.84326	739.34302	1758.0625	-651.58606	926.48401	1358.7356	-638.26105	934.34613	1573.85168	-834.35345	939.31592	1420.74072	-824.14868	943.43433	1566.3894	-694.06097	589.31976	1307.7157	-716.08502	455.70712	1317.54004	-847.69592	319.30603	1309.09338	-978.92706	141.21358	1356.19666	-1028.58191	140.65056	1411.49219	-882.28339	29.31343	1355.5918	-643.19336	605.31647	1635.96887	-605.29205	451.93677	1607.8678	-634.51697	276.93192	1616.24377	-632.53735	70.67254	1569.68896	-679.46863	30.59189	1520.26648	-490.59552	37.16754	1564.15918	-693.32739	1714.04871	1523.84326	1973.0719	1023.34625	-3101.98413	2012.48889	1022.00616	-3140.677	NaN	NaN	NaN	NaN	NaN	NaN
